HIERARCHY
ROOT Hips
{
  OFFSET 0 0 0
  CHANNELS 6 Xposition Yposition Zposition Zrotation Yrotation Xrotation
  JOINT LeftThigh
  {
    OFFSET 8.409438 0 -5.917753
    CHANNELS 3 Zrotation Yrotation Xrotation
    JOINT LeftLeg
    {
      OFFSET 0 0 -42.358652
      CHANNELS 3 Zrotation Yrotation Xrotation
      JOINT LeftFoot
      {
        OFFSET 0 0 -39.357303
        CHANNELS 3 Zrotation Yrotation Xrotation
      }
    }
  }
  JOINT RightThigh
  {
    OFFSET -8.409438 0 -5.917753
    CHANNELS 3 Zrotation Yrotation Xrotation
    JOINT RightLeg
    {
      OFFSET 0 0 -42.358652
      CHANNELS 3 Zrotation Yrotation Xrotation
      JOINT RightFoot
      {
        OFFSET 0 0 -39.357303
        CHANNELS 3 Zrotation Yrotation Xrotation
      }
    }
  }
  JOINT SpineLow
  {
    OFFSET 0 0 4.719101
    CHANNELS 3 Zrotation Yrotation Xrotation
    JOINT SpineMid
    {
      OFFSET 0 0 12.899191
      CHANNELS 3 Zrotation Yrotation Xrotation
      JOINT Chest
      {
        OFFSET 0 0 12.899191
        CHANNELS 3 Zrotation Yrotation Xrotation
        JOINT LeftShoulder
        {
          OFFSET 7.550562 1.41573 9.438202
          CHANNELS 3 Zrotation Yrotation Xrotation
          JOINT LeftArm
          {
            OFFSET 9.155056 0 4.247191
            CHANNELS 3 Zrotation Yrotation Xrotation
            JOINT LeftForearm
            {
              OFFSET 0 0 25.771955
              CHANNELS 3 Zrotation Yrotation Xrotation
              JOINT LeftHand
              {
                OFFSET 0 0 25.197169
                CHANNELS 3 Zrotation Yrotation Xrotation
              }
            }
          }
        }
        JOINT RightShoulder
        {
          OFFSET -7.550562 1.41573 9.438202
          CHANNELS 3 Zrotation Yrotation Xrotation
          JOINT RightArm
          {
            OFFSET -9.155056 0 4.247191
            CHANNELS 3 Zrotation Yrotation Xrotation
            JOINT RightForearm
            {
              OFFSET 0 0 -25.771955
              CHANNELS 3 Zrotation Yrotation Xrotation
              JOINT RightHand
              {
                OFFSET 0 0 -25.197169
                CHANNELS 3 Zrotation Yrotation Xrotation
              }
            }
          }
        }
        JOINT Neck
        {
          OFFSET 0 0 15.101124
          CHANNELS 3 Zrotation Yrotation Xrotation
          JOINT Head
          {
            OFFSET 0 0 11.325843
            CHANNELS 3 Zrotation Yrotation Xrotation
            End Site
            {
              OFFSET 0 0 14.157303
            }
          }
        }
      }
    }
  }
}
MOTION
Frames: 7
Frame Time: 0.0
0.0  101.685394  0.0  -0.823277  -4.162629  -98.418081  33.46054  -19.610675  -20.544976  -17.983237  14.778065  39.442703  -4.888972  0.443031  2.653048  -0.882726  8.07221  14.033106  2.227073  6.695151  20.989849  5.35277  7.488255  -3.978189  -0.015396  -0.603323  2.722694  -0.109915  -1.644989  7.444014  -0.109915  -1.64499  7.444014  -13.820781  27.631663  -0.11298  -174.316446  72.464351  -122.527053  -37.37535  -33.287955  87.225195  38.061261  -42.538841  10.110977  -0.791075  -2.512344  17.374401  101.115501  27.237045  33.958283  -21.49585  21.708156  -98.378969  73.850601  15.739607  42.037613  0.627242  -2.261858  -4.752315  0.452806  -1.701394  -3.561455  
0.0  101.685394  0.0  -0.751599  -4.013808  -98.349397  33.242509  -19.516008  -20.595267  -17.46809  14.544771  39.595053  -4.968257  0.409372  2.733788  -0.59701  8.164411  14.237279  1.814572  6.588325  20.571837  5.036719  7.61469  -3.966808  -0.050333  -0.613141  2.714607  -0.206193  -1.667885  7.422833  -0.206193  -1.667885  7.422833  -13.976065  27.484983  -0.119975  -173.845994  72.052193  -122.424262  -37.315916  -33.20392  86.811035  37.390386  -42.462434  10.977586  -0.885432  -2.58927  17.307959  100.080734  28.664632  33.683313  -20.560429  21.49812  -98.697129  74.030378  15.397639  42.300828  0.67319  -2.207728  -4.727315  0.487779  -1.661123  -3.54262  
0.0  101.685394  0.0  -0.736168  -4.055296  -98.233617  33.2347  -19.467652  -20.735244  -16.802678  14.157556  39.825966  -5.132306  0.402224  2.819573  -0.405721  8.098673  14.294667  1.669454  6.632602  20.142198  4.809969  7.671587  -3.894517  -0.071038  -0.645757  2.6947  -0.265858  -1.754681  7.369181  -0.265858  -1.754681  7.369182  -13.953992  27.497861  -0.123726  -173.896643  71.822067  -122.575396  -37.221614  -33.066617  86.613647  37.422831  -42.268845  11.17247  -0.853026  -2.481522  17.375742  100.095549  29.533219  33.663185  -20.585768  21.245784  -98.873201  74.202288  15.11103  42.49369  0.783572  -2.102743  -4.64879  0.571651  -1.583128  -3.483511  
0.0  101.685394  0.0  -0.667472  -4.012756  -98.143969  33.026573  -19.353335  -20.888053  -16.114499  13.815916  40.066685  -5.201987  0.416475  2.968183  -0.138217  8.175402  14.457991  1.776199  6.648774  19.850502  4.225772  7.619074  -3.968508  -0.128365  -0.667761  2.671659  -0.424196  -1.808519  7.307916  -0.424196  -1.808519  7.307917  -13.813132  27.454517  -0.031493  -173.762881  71.482627  -122.718655  -37.221468  -33.708958  85.625437  36.212769  -42.610055  12.254694  -0.799534  -2.47784  17.422568  99.259017  31.039007  33.418805  -19.559479  20.727569  -99.192815  74.329749  14.875097  42.349259  1.014952  -1.966886  -4.550204  0.746539  -1.482823  -3.409062  
0.0  101.685394  0.0  -0.614613  -4.033655  -97.962958  32.938773  -19.20186  -21.15312  -15.38191  13.549461  40.387986  -5.240868  0.350345  3.085228  -0.085464  8.215004  14.423827  1.705495  6.678837  19.433016  3.998107  7.659717  -3.928669  -0.154994  -0.695713  2.649278  -0.499364  -1.882059  7.24777  -0.499364  -1.882059  7.24777  -13.765868  27.473079  -0.052381  -174.048643  71.303798  -123.12127  -37.252005  -33.710442  85.585477  36.487236  -42.514409  12.188412  -0.714936  -2.386809  17.529488  99.344697  32.107361  33.435216  -19.508398  20.241519  -99.38533  74.458633  14.660182  42.047605  1.180481  -1.824073  -4.522318  0.871841  -1.376885  -3.387943  
0.0  101.685394  0.0  -0.44123  -3.972347  -97.831937  32.708281  -18.963595  -21.373956  -14.782594  13.465084  40.669648  -5.136366  0.282881  3.234152  0.155306  8.532988  14.551951  1.747544  6.575646  19.121906  3.430389  7.532302  -4.030957  -0.214219  -0.699326  2.62615  -0.660809  -1.88568  7.18625  -0.660809  -1.88568  7.18625  -13.494199  27.461926  0.10178  -174.191225  71.037236  -123.425182  -37.378581  -33.739229  85.598362  38.481767  -41.671254  11.09212  -0.59034  -2.417846  17.639492  99.422878  33.297276  33.575626  -19.395444  19.710407  -99.635421  74.520468  14.470379  41.517037  1.448876  -1.65928  -4.493386  1.074447  -1.2552  -3.365892  
0.0  101.685394  0.0  -0.348217  -3.98836  -97.590892  32.61258  -18.746106  -21.739345  -14.225968  13.441595  40.992023  -5.05988  0.181149  3.316196  0.08766  8.71047  14.407798  1.673042  6.562716  18.734603  3.351051  7.557531  -4.006742  -0.226407  -0.714431  2.610442  -0.695283  -1.925764  7.143867  -0.695283  -1.925764  7.143867  -13.51832  27.431951  0.06273  -174.601952  70.840346  -123.937681  -37.574185  -33.654444  85.813155  38.525668  -41.59861  11.234356  -0.509809  -2.459479  17.707895  99.622325  34.52929  33.778392  -19.438492  19.290904  -99.826177  74.603275  14.301284  41.127034  1.598629  -1.524793  -4.576438  1.187559  -1.155651  -3.428164  
